<?xml version="1.0" encoding="UTF-8" standalone="no"?>
<!-- Created with Inkscape (http://www.inkscape.org/) -->

<svg
   xmlns:dc="http://purl.org/dc/elements/1.1/"
   xmlns:cc="http://creativecommons.org/ns#"
   xmlns:rdf="http://www.w3.org/1999/02/22-rdf-syntax-ns#"
   xmlns:svg="http://www.w3.org/2000/svg"
   xmlns="http://www.w3.org/2000/svg"
   xmlns:sodipodi="http://sodipodi.sourceforge.net/DTD/sodipodi-0.dtd"
   xmlns:inkscape="http://www.inkscape.org/namespaces/inkscape"
   width="500pt"
   height="500pt"
   viewBox="0 0 625.00002 624.99999"
   id="svg2"
   version="1.1"
   inkscape:version="0.91 r13725"
   sodipodi:docname="business.svg">
  <defs
     id="defs4" />
  <sodipodi:namedview
     id="base"
     pagecolor="#ffffff"
     bordercolor="#666666"
     borderopacity="1.0"
     inkscape:pageopacity="0.0"
     inkscape:pageshadow="2"
     inkscape:zoom="0.98994949"
     inkscape:cx="294.63081"
     inkscape:cy="418.75954"
     inkscape:document-units="px"
     inkscape:current-layer="layer1"
     showgrid="true"
     units="pt"
     inkscape:window-width="1920"
     inkscape:window-height="1043"
     inkscape:window-x="0"
     inkscape:window-y="0"
     inkscape:window-maximized="1">
    <inkscape:grid
       type="xygrid"
       id="grid4136"
       units="pt"
       spacingx="1.25"
       spacingy="1.25"
       empspacing="50" />
  </sodipodi:namedview>
  <metadata
     id="metadata7">
    <rdf:RDF>
      <cc:Work
         rdf:about="">
        <dc:format>image/svg+xml</dc:format>
        <dc:type
           rdf:resource="http://purl.org/dc/dcmitype/StillImage" />
        <dc:title></dc:title>
      </cc:Work>
    </rdf:RDF>
  </metadata>
  <g
     inkscape:label="Layer 1"
     inkscape:groupmode="layer"
     id="layer1"
     transform="translate(0,-427.36222)">
    <path
       style="fill:#333333;fill-opacity:1;stroke:none;stroke-opacity:0"
       d="M 250 62.5 C 250 62.5 187.5 62.5 187.5 125 L 187.5 187.5 L 112.5 187.5 C 84.8 187.5 62.5 214.26 62.5 247.5 L 62.5 502.5 C 62.5 535.74 84.8 562.5 112.5 562.5 L 512.5 562.5 C 540.2 562.5 562.5 535.74 562.5 502.5 L 562.5 247.5 C 562.5 214.26 540.2 187.5 512.5 187.5 L 437.5 187.5 L 437.5 125 C 437.5 125 437.5 62.5 375 62.5 L 250 62.5 z M 250 125 L 375 125 L 375 187.5 L 250 187.5 L 250 125 z "
       transform="translate(0,427.36222)"
       id="rect4166" />
  </g>
</svg>
